<?xml version="1.0" encoding="iso-8859-1"?>
<!-- Generator: Adobe Illustrator 19.0.0, SVG Export Plug-In . SVG Version: 6.00 Build 0)  -->
<svg version="1.1" id="Capa_1" xmlns="http://www.w3.org/2000/svg" xmlns:xlink="http://www.w3.org/1999/xlink" x="0px" y="0px"
	 viewBox="0 0 59.957 59.957" style="enable-background:new 0 0 59.957 59.957;" xml:space="preserve">
	 <style>
	 path{
		 fill: #333333;
	 }
	 </style>
<g>
	<path d="M34.354,19.802c-0.746-0.462-1.548-0.785-2.378-0.981c0.2-5.063,4.37-9.124,9.481-9.124c5.094,0,9.253,4.033,9.478,9.073
		c-3.929,0.504-6.978,3.863-6.978,7.927c0,0.552,0.448,1,1,1s1-0.448,1-1c0-3.309,2.691-6,6-6s6,2.691,6,6c0,0.552,0.448,1,1,1
		s1-0.448,1-1c0-4.079-3.071-7.449-7.022-7.934c-0.231-6.139-5.283-11.066-11.478-11.066c-6.143,0-11.161,4.844-11.47,10.911
		c-0.558,0.012-1.119,0.078-1.676,0.208c-2.08,0.49-3.845,1.76-4.97,3.577c-0.096,0.155-0.179,0.316-0.263,0.475
		c-2.88-0.583-5.844,0.433-7.746,2.743c-1.288,1.565-1.873,3.476-1.808,5.358c-4.631-0.838-9.342,1.223-11.847,5.344
		c-1.595,2.625-2.073,5.714-1.345,8.699c0.728,2.984,2.575,5.506,5.2,7.101c0.163,0.099,0.342,0.146,0.519,0.146
		c0.338,0,0.667-0.171,0.855-0.48c0.287-0.472,0.137-1.087-0.335-1.374c-2.169-1.318-3.694-3.401-4.296-5.866
		s-0.207-5.017,1.111-7.186c2.198-3.616,6.45-5.315,10.496-4.259c0.448,1.432,1.297,2.756,2.539,3.779
		c0.186,0.153,0.411,0.228,0.635,0.228c0.289,0,0.575-0.124,0.772-0.364c0.351-0.426,0.29-1.057-0.136-1.408
		c-1.016-0.836-1.679-1.941-1.985-3.127c-0.001-0.015-0.008-0.028-0.01-0.043c-0.447-1.785-0.079-3.75,1.178-5.276
		c1.355-1.645,3.431-2.421,5.486-2.122c-0.284,1.194-0.296,2.446-0.006,3.675c0.108,0.46,0.519,0.771,0.973,0.771
		c0.076,0,0.153-0.008,0.23-0.026c0.538-0.126,0.871-0.665,0.745-1.203c-0.367-1.56-0.104-3.169,0.739-4.532
		c0.844-1.363,2.167-2.315,3.728-2.682c1.562-0.369,3.17-0.105,4.532,0.738c1.363,0.844,2.315,2.167,2.682,3.728
		c0.126,0.537,0.664,0.871,1.203,0.745c0.538-0.126,0.871-0.665,0.745-1.203C37.441,22.692,36.171,20.927,34.354,19.802z"/>
	<path d="M54.9,43.779c-0.458-3.979-3.843-7.082-7.943-7.082c-4.411,0-8,3.589-8,8c0,0.552,0.448,1,1,1s1-0.448,1-1
		c0-3.309,2.691-6,6-6c3.003,0,5.49,2.219,5.925,5.102c-2.797,0.509-4.925,2.957-4.925,5.898c0,0.552,0.448,1,1,1s1-0.448,1-1
		c0-2.206,1.794-4,4-4s4,1.794,4,4c0,0.552,0.448,1,1,1s1-0.448,1-1C59.957,46.71,57.761,44.234,54.9,43.779z"/>
</g>
<g>
</g>
<g>
</g>
<g>
</g>
<g>
</g>
<g>
</g>
<g>
</g>
<g>
</g>
<g>
</g>
<g>
</g>
<g>
</g>
<g>
</g>
<g>
</g>
<g>
</g>
<g>
</g>
<g>
</g>
</svg>
