<?xml version="1.0" encoding="iso-8859-1"?>
<!-- Generator: Adobe Illustrator 19.0.0, SVG Export Plug-In . SVG Version: 6.00 Build 0)  -->
<svg version="1.1" id="Capa_1" xmlns="http://www.w3.org/2000/svg" xmlns:xlink="http://www.w3.org/1999/xlink" x="0px" y="0px"
	 viewBox="0 0 56.229 56.229" style="enable-background:new 0 0 56.229 56.229;" xml:space="preserve">
	 <style>
	 path{
		 fill: #333333;
	 }
	 </style>
<path d="M55.114,56.229h-54c-0.553,0-1-0.447-1-1s0.447-1,1-1h54c0.553,0,1,0.447,1,1S55.667,56.229,55.114,56.229z"/>
<path d="M29.6,39.229h-2.971c-1.387,0-2.515-1.128-2.515-2.515v-2.971c0-1.387,1.128-2.515,2.515-2.515H29.6
	c1.387,0,2.515,1.128,2.515,2.515v2.971C32.114,38.101,30.986,39.229,29.6,39.229z M26.629,33.229c-0.284,0-0.515,0.23-0.515,0.515
	v2.971c0,0.284,0.23,0.515,0.515,0.515H29.6c0.284,0,0.515-0.23,0.515-0.515v-2.971c0-0.284-0.23-0.515-0.515-0.515H26.629z"/>
<path d="M48.872,50.086c-0.673,0-1.305-0.262-1.779-0.737l-2.1-2.1c-0.475-0.474-0.736-1.105-0.736-1.778
	c0-0.672,0.261-1.304,0.736-1.778l2.101-2.1c0.946-0.949,2.606-0.951,3.557,0l2.1,2.1c0.476,0.475,0.737,1.106,0.737,1.778
	c0,0.673-0.263,1.305-0.738,1.779l-2.099,2.1C50.176,49.825,49.544,50.086,48.872,50.086z M48.872,42.855
	c-0.08,0-0.233,0.021-0.363,0.15l-2.102,2.101c-0.098,0.098-0.15,0.227-0.15,0.364c0,0.08,0.02,0.233,0.149,0.363l2.103,2.103
	c0.13,0.13,0.283,0.149,0.363,0.149c0.138,0,0.267-0.053,0.364-0.15l2.1-2.101c0.131-0.131,0.151-0.284,0.151-0.364
	c0-0.138-0.054-0.267-0.151-0.364l-2.1-2.1C49.139,42.909,49.01,42.855,48.872,42.855z"/>
<path d="M5.356,50.086c-0.672,0-1.304-0.261-1.778-0.736l-2.1-2.101c-0.475-0.474-0.737-1.105-0.737-1.778
	c0-0.672,0.262-1.304,0.737-1.778l2.1-2.1c0.949-0.951,2.608-0.95,3.558,0.001l2.1,2.099c0.476,0.475,0.736,1.106,0.736,1.778
	c0,0.673-0.262,1.305-0.737,1.779l-2.1,2.1C6.661,49.824,6.029,50.086,5.356,50.086z M4.992,47.936
	c0.098,0.098,0.227,0.15,0.364,0.15c0.08,0,0.233-0.02,0.363-0.149l2.102-2.102c0.131-0.131,0.15-0.284,0.15-0.364
	c0-0.138-0.053-0.267-0.15-0.364l-2.101-2.1c-0.131-0.131-0.284-0.151-0.364-0.151c-0.138,0-0.267,0.054-0.364,0.151l-2.1,2.1
	c-0.098,0.098-0.151,0.227-0.151,0.364c0,0.08,0.021,0.233,0.15,0.363L4.992,47.936z"/>
<path d="M33.729,9.227c-0.645,0-1.288-0.244-1.777-0.733l-2.102-2.102c-0.979-0.98-0.979-2.576-0.001-3.556l2.102-2.101
	c0.981-0.981,2.577-0.979,3.557,0l2.1,2.1c0.98,0.98,0.98,2.576,0,3.557l-2.1,2.101C35.018,8.981,34.373,9.227,33.729,9.227z
	 M33.364,7.077c0.201,0.201,0.529,0.201,0.73,0l2.099-2.1c0.201-0.201,0.201-0.527,0-0.729l-2.1-2.1
	c-0.201-0.201-0.527-0.201-0.729,0l-2.101,2.1c-0.2,0.2-0.2,0.528,0.001,0.729L33.364,7.077z"/>
<path d="M16.499,23.227c-0.645,0-1.288-0.244-1.777-0.733l-2.101-2.102c-0.98-0.98-0.98-2.576,0-3.557l2.1-2.1
	c0.98-0.98,2.576-0.98,3.557,0l2.101,2.1c0.979,0.98,0.979,2.576,0.001,3.556l-2.102,2.102
	C17.787,22.982,17.143,23.227,16.499,23.227z M16.135,21.077c0.201,0.201,0.528,0.201,0.729,0l2.1-2.1
	c0.2-0.2,0.2-0.528-0.001-0.729l-2.1-2.099c-0.201-0.201-0.527-0.201-0.729,0l-2.1,2.1c-0.201,0.201-0.201,0.527,0,0.729
	L16.135,21.077z"/>
<g>
	<path d="M21.114,52.229c-0.553,0-1-0.447-1-1c0-0.304-0.015-0.605-0.044-0.901c-0.054-0.55,0.348-1.039,0.897-1.093
		c0.562-0.05,1.039,0.348,1.093,0.897c0.035,0.36,0.054,0.727,0.054,1.097C22.114,51.781,21.667,52.229,21.114,52.229z"/>
	<path d="M20.152,47.939c-0.374,0-0.733-0.211-0.904-0.571c-0.221-0.465-0.481-0.911-0.776-1.328
		c-0.319-0.45-0.212-1.074,0.239-1.394c0.45-0.319,1.074-0.211,1.394,0.239c0.361,0.51,0.681,1.057,0.95,1.625
		c0.237,0.499,0.024,1.096-0.475,1.332C20.441,47.908,20.296,47.939,20.152,47.939z M16.875,44.052c-0.199,0-0.4-0.06-0.576-0.183
		c-0.418-0.296-0.865-0.557-1.327-0.776c-0.499-0.236-0.713-0.832-0.476-1.331s0.835-0.715,1.331-0.476
		c0.566,0.268,1.113,0.587,1.626,0.948c0.451,0.319,0.559,0.942,0.24,1.395C17.498,43.904,17.189,44.052,16.875,44.052z"/>
	<path d="M12.114,42.277c-0.032,0-0.065-0.002-0.099-0.005c-0.296-0.029-0.598-0.044-0.901-0.044c-0.553,0-1-0.447-1-1s0.447-1,1-1
		c0.37,0,0.736,0.019,1.097,0.054c0.55,0.054,0.951,0.543,0.897,1.093C13.058,41.892,12.623,42.277,12.114,42.277z"/>
</g>
<g>
	<path d="M34.114,52.229c-0.553,0-1-0.447-1-1c0-0.37,0.019-0.736,0.054-1.097c0.054-0.55,0.533-0.948,1.093-0.897
		c0.55,0.054,0.951,0.543,0.897,1.093c-0.029,0.296-0.044,0.598-0.044,0.901C35.114,51.781,34.667,52.229,34.114,52.229z"/>
	<path d="M35.076,47.939c-0.144,0-0.289-0.031-0.428-0.097c-0.499-0.236-0.712-0.833-0.475-1.332c0.27-0.568,0.589-1.115,0.95-1.625
		c0.319-0.45,0.943-0.559,1.394-0.239c0.451,0.319,0.559,0.943,0.239,1.394c-0.295,0.417-0.556,0.863-0.776,1.328
		C35.81,47.729,35.45,47.939,35.076,47.939z M38.354,44.052c-0.314,0-0.623-0.147-0.818-0.423c-0.318-0.452-0.211-1.075,0.24-1.395
		c0.513-0.361,1.06-0.681,1.626-0.948c0.498-0.236,1.095-0.024,1.331,0.476c0.237,0.499,0.023,1.095-0.476,1.331
		c-0.462,0.22-0.909,0.48-1.327,0.776C38.754,43.992,38.553,44.052,38.354,44.052z"/>
	<path d="M43.114,42.277c-0.509,0-0.943-0.386-0.994-0.902c-0.054-0.55,0.348-1.039,0.897-1.093c0.36-0.035,0.727-0.054,1.097-0.054
		c0.553,0,1,0.447,1,1s-0.447,1-1,1c-0.304,0-0.605,0.015-0.901,0.044C43.18,42.275,43.146,42.277,43.114,42.277z"/>
</g>
<g>
</g>
<g>
</g>
<g>
</g>
<g>
</g>
<g>
</g>
<g>
</g>
<g>
</g>
<g>
</g>
<g>
</g>
<g>
</g>
<g>
</g>
<g>
</g>
<g>
</g>
<g>
</g>
<g>
</g>
</svg>
