<?xml version="1.0" encoding="iso-8859-1"?>
<!-- Generator: Adobe Illustrator 19.0.0, SVG Export Plug-In . SVG Version: 6.00 Build 0)  -->
<svg version="1.1" id="Capa_1" xmlns="http://www.w3.org/2000/svg" xmlns:xlink="http://www.w3.org/1999/xlink" x="0px" y="0px"
	 viewBox="0 0 59.998 59.998" style="enable-background:new 0 0 59.998 59.998;" xml:space="preserve">
	 <style>
	 path{
		 fill: #333333;
	 }
	 </style>
<g>
	<path d="M37.499,38.261V7c0-3.859-3.14-7-7-7s-7,3.141-7,7v31.261c-3.545,2.546-5.421,6.769-4.919,11.151
		c0.628,5.482,5.066,9.903,10.551,10.512c0.447,0.05,0.894,0.074,1.339,0.074c2.955,0,5.823-1.079,8.03-3.055
		c2.541-2.275,3.999-5.535,3.999-8.943C42.499,44.118,40.64,40.518,37.499,38.261z M37.167,55.453
		c-2.146,1.922-4.92,2.803-7.814,2.482c-4.567-0.506-8.262-4.187-8.785-8.752c-0.437-3.809,1.279-7.471,4.478-9.559l0.454-0.297V38
		h1c0.552,0,1-0.447,1-1s-0.448-1-1-1h-1v-3h1c0.552,0,1-0.447,1-1s-0.448-1-1-1h-1v-3h1c0.552,0,1-0.447,1-1s-0.448-1-1-1h-1v-3h1
		c0.552,0,1-0.447,1-1s-0.448-1-1-1h-1v-3h1c0.552,0,1-0.447,1-1s-0.448-1-1-1h-1v-3h1c0.552,0,1-0.447,1-1s-0.448-1-1-1h-1V8h1
		c0.552,0,1-0.447,1-1s-0.448-1-1-1H25.6c0.465-2.279,2.484-4,4.899-4c2.757,0,5,2.243,5,5v1h-1c-0.552,0-1,0.447-1,1s0.448,1,1,1h1
		v3h-1c-0.552,0-1,0.447-1,1s0.448,1,1,1h1v3h-1c-0.552,0-1,0.447-1,1s0.448,1,1,1h1v3h-1c-0.552,0-1,0.447-1,1s0.448,1,1,1h1v3h-1
		c-0.552,0-1,0.447-1,1s0.448,1,1,1h1v3h-1c-0.552,0-1,0.447-1,1s0.448,1,1,1h1v4.329l0.454,0.296
		c2.847,1.857,4.546,4.988,4.546,8.375C40.499,50.841,39.284,53.557,37.167,55.453z"/>
	<path d="M31.499,43.101V6c0-0.553-0.448-1-1-1s-1,0.447-1,1v37.101c-2.282,0.463-4,2.48-4,4.899c0,2.761,2.239,5,5,5s5-2.239,5-5
		C35.499,45.581,33.781,43.564,31.499,43.101z"/>
	<path d="M51.035,10.465l-3.536-3.536l-3.536,3.536c-0.944,0.944-1.464,2.199-1.464,3.535s0.52,2.591,1.464,3.535
		c0.975,0.975,2.255,1.462,3.536,1.462s2.561-0.487,3.536-1.462c0.944-0.944,1.464-2.199,1.464-3.535S51.979,11.409,51.035,10.465z
		 M49.621,16.121c-1.17,1.169-3.073,1.17-4.243,0c-0.566-0.566-0.878-1.319-0.878-2.121s0.312-1.555,0.878-2.121l2.122-2.122
		l2.122,2.122c0.566,0.566,0.878,1.319,0.878,2.121S50.187,15.555,49.621,16.121z"/>
	<path d="M12.499,27.929l-3.536,3.536C8.019,32.409,7.499,33.664,7.499,35s0.52,2.591,1.464,3.535
		c0.975,0.975,2.255,1.462,3.536,1.462s2.561-0.487,3.536-1.462c0.944-0.944,1.464-2.199,1.464-3.535s-0.52-2.591-1.464-3.535
		L12.499,27.929z M14.621,37.121c-1.17,1.169-3.073,1.17-4.243,0C9.811,36.555,9.499,35.802,9.499,35s0.312-1.555,0.878-2.121
		l2.122-2.122l2.122,2.122c0.566,0.566,0.878,1.319,0.878,2.121S15.187,36.555,14.621,37.121z"/>
</g>
<g>
</g>
<g>
</g>
<g>
</g>
<g>
</g>
<g>
</g>
<g>
</g>
<g>
</g>
<g>
</g>
<g>
</g>
<g>
</g>
<g>
</g>
<g>
</g>
<g>
</g>
<g>
</g>
<g>
</g>
</svg>
