<?xml version="1.0" encoding="iso-8859-1"?>
<!-- Generator: Adobe Illustrator 19.0.0, SVG Export Plug-In . SVG Version: 6.00 Build 0)  -->
<svg version="1.1" id="Capa_1" xmlns="http://www.w3.org/2000/svg" xmlns:xlink="http://www.w3.org/1999/xlink" x="0px" y="0px"
	 viewBox="0 0 59.998 59.998" style="enable-background:new 0 0 59.998 59.998;" xml:space="preserve">
	 <style>
	 path{
		 fill: #333333;
	 }
	 </style>
<g>
	<path d="M37.999,38.261V7c0-3.859-3.141-7-7-7s-7,3.141-7,7v31.261c-3.545,2.547-5.421,6.769-4.919,11.151
		c0.629,5.482,5.066,9.903,10.551,10.512c0.447,0.05,0.895,0.074,1.339,0.074c2.956,0,5.824-1.08,8.03-3.055
		c2.542-2.275,3.999-5.535,3.999-8.943C42.999,44.118,41.14,40.518,37.999,38.261z M37.666,55.453
		c-2.146,1.921-4.929,2.8-7.814,2.482c-4.566-0.506-8.261-4.187-8.785-8.752c-0.436-3.808,1.28-7.471,4.479-9.56l0.453-0.296V38h1
		c0.553,0,1-0.447,1-1s-0.447-1-1-1h-1v-3h1c0.553,0,1-0.447,1-1s-0.447-1-1-1h-1v-3h1c0.553,0,1-0.447,1-1s-0.447-1-1-1h-1v-3h1
		c0.553,0,1-0.447,1-1s-0.447-1-1-1h-1v-3h1c0.553,0,1-0.447,1-1s-0.447-1-1-1h-1v-3h1c0.553,0,1-0.447,1-1s-0.447-1-1-1h-1V8h1
		c0.553,0,1-0.447,1-1s-0.447-1-1-1H26.1c0.465-2.279,2.484-4,4.899-4c2.757,0,5,2.243,5,5v1h-1c-0.553,0-1,0.447-1,1s0.447,1,1,1h1
		v3h-1c-0.553,0-1,0.447-1,1s0.447,1,1,1h1v3h-1c-0.553,0-1,0.447-1,1s0.447,1,1,1h1v3h-1c-0.553,0-1,0.447-1,1s0.447,1,1,1h1v3h-1
		c-0.553,0-1,0.447-1,1s0.447,1,1,1h1v3h-1c-0.553,0-1,0.447-1,1s0.447,1,1,1h1v4.329l0.453,0.296
		c2.848,1.857,4.547,4.988,4.547,8.375C40.999,50.841,39.784,53.557,37.666,55.453z"/>
	<path d="M31.999,43.101V37c0-0.553-0.447-1-1-1s-1,0.447-1,1v6.101c-2.282,0.463-4,2.48-4,4.899c0,2.761,2.239,5,5,5s5-2.239,5-5
		C35.999,45.581,34.281,43.564,31.999,43.101z"/>
	<path d="M54.829,13.634L51.999,12l2.83-1.634C55.308,10.09,55.472,9.479,55.195,9c-0.277-0.479-0.89-0.643-1.366-0.366l-2.83,1.634
		V7c0-0.553-0.447-1-1-1s-1,0.447-1,1v3.268l-2.83-1.634C45.691,8.357,45.079,8.521,44.803,9c-0.276,0.479-0.112,1.09,0.366,1.366
		L47.999,12l-2.83,1.634C44.69,13.91,44.526,14.521,44.803,15c0.186,0.321,0.521,0.5,0.867,0.5c0.17,0,0.342-0.043,0.499-0.134
		l2.83-1.634V17c0,0.553,0.447,1,1,1s1-0.447,1-1v-3.268l2.83,1.634c0.157,0.091,0.329,0.134,0.499,0.134
		c0.346,0,0.682-0.179,0.867-0.5C55.472,14.521,55.308,13.91,54.829,13.634z"/>
	<path d="M15.195,36c-0.277-0.479-0.891-0.643-1.366-0.366l-2.83,1.634V34c0-0.553-0.447-1-1-1s-1,0.447-1,1v3.268l-2.83-1.634
		C5.69,35.357,5.079,35.521,4.803,36c-0.276,0.479-0.112,1.09,0.366,1.366L7.999,39l-2.83,1.634C4.69,40.91,4.526,41.521,4.803,42
		c0.186,0.321,0.521,0.5,0.867,0.5c0.17,0,0.342-0.043,0.499-0.134l2.83-1.634V44c0,0.553,0.447,1,1,1s1-0.447,1-1v-3.268
		l2.83,1.634c0.157,0.091,0.329,0.134,0.499,0.134c0.346,0,0.682-0.179,0.867-0.5c0.276-0.479,0.112-1.09-0.366-1.366L11.999,39
		l2.83-1.634C15.308,37.09,15.472,36.479,15.195,36z"/>
</g>
<g>
</g>
<g>
</g>
<g>
</g>
<g>
</g>
<g>
</g>
<g>
</g>
<g>
</g>
<g>
</g>
<g>
</g>
<g>
</g>
<g>
</g>
<g>
</g>
<g>
</g>
<g>
</g>
<g>
</g>
</svg>
