<?xml version="1.0" encoding="iso-8859-1"?>
<!-- Generator: Adobe Illustrator 19.0.0, SVG Export Plug-In . SVG Version: 6.00 Build 0)  -->
<svg version="1.1" id="Capa_1" xmlns="http://www.w3.org/2000/svg" xmlns:xlink="http://www.w3.org/1999/xlink" x="0px" y="0px"
	 viewBox="0 0 59.998 59.998" style="enable-background:new 0 0 59.998 59.998;" xml:space="preserve">
	 <style>
	 path{
		 fill: #333333;
	 }
	 </style>
<g>
	<path d="M36.999,38.261V7c0-3.859-3.14-7-7-7s-7,3.141-7,7v31.261c-3.545,2.546-5.421,6.769-4.919,11.151
		c0.628,5.482,5.066,9.903,10.551,10.512c0.447,0.05,0.894,0.074,1.339,0.074c2.955,0,5.823-1.079,8.03-3.055
		c2.541-2.275,3.999-5.535,3.999-8.943C41.999,44.118,40.14,40.518,36.999,38.261z M36.666,55.453
		c-2.147,1.922-4.923,2.803-7.814,2.482c-4.567-0.506-8.262-4.187-8.785-8.752c-0.437-3.809,1.279-7.471,4.478-9.559l0.454-0.297V38
		h1c0.552,0,1-0.447,1-1s-0.448-1-1-1h-1v-3h1c0.552,0,1-0.447,1-1s-0.448-1-1-1h-1v-3h1c0.552,0,1-0.447,1-1s-0.448-1-1-1h-1v-3h1
		c0.552,0,1-0.447,1-1s-0.448-1-1-1h-1v-3h1c0.552,0,1-0.447,1-1s-0.448-1-1-1h-1v-3h1c0.552,0,1-0.447,1-1s-0.448-1-1-1h-1V8h1
		c0.552,0,1-0.447,1-1s-0.448-1-1-1H25.1c0.465-2.279,2.484-4,4.899-4c2.757,0,5,2.243,5,5v1h-1c-0.552,0-1,0.447-1,1s0.448,1,1,1h1
		v3h-1c-0.552,0-1,0.447-1,1s0.448,1,1,1h1v3h-1c-0.552,0-1,0.447-1,1s0.448,1,1,1h1v3h-1c-0.552,0-1,0.447-1,1s0.448,1,1,1h1v3h-1
		c-0.552,0-1,0.447-1,1s0.448,1,1,1h1v3h-1c-0.552,0-1,0.447-1,1s0.448,1,1,1h1v4.329l0.454,0.296
		c2.847,1.857,4.546,4.988,4.546,8.375C39.999,50.841,38.784,53.557,36.666,55.453z"/>
	<path d="M30.999,43.101V22c0-0.553-0.448-1-1-1s-1,0.447-1,1v21.101c-2.282,0.463-4,2.48-4,4.899c0,2.761,2.239,5,5,5s5-2.239,5-5
		C34.999,45.581,33.281,43.564,30.999,43.101z"/>
</g>
<g>
</g>
<g>
</g>
<g>
</g>
<g>
</g>
<g>
</g>
<g>
</g>
<g>
</g>
<g>
</g>
<g>
</g>
<g>
</g>
<g>
</g>
<g>
</g>
<g>
</g>
<g>
</g>
<g>
</g>
</svg>
