<?xml version="1.0" encoding="iso-8859-1"?>
<!-- Generator: Adobe Illustrator 19.0.0, SVG Export Plug-In . SVG Version: 6.00 Build 0)  -->
<svg version="1.1" id="Capa_1" xmlns="http://www.w3.org/2000/svg" xmlns:xlink="http://www.w3.org/1999/xlink" x="0px" y="0px"
	 viewBox="0 0 59.958 59.958" style="enable-background:new 0 0 59.958 59.958;" xml:space="preserve">
	 <style>
	 path{
		 fill: #333333;
	 }
	 </style>
<g>
	<path d="M34.354,20.806c-0.733-0.454-1.521-0.775-2.336-0.972c0.075-1.977,0.748-3.849,1.974-5.433l0.456-0.59
		c1.739-1.905,4.233-3.11,7.009-3.11c5.094,0,9.253,4.033,9.478,9.073c-3.929,0.504-6.978,3.863-6.978,7.927c0,0.552,0.447,1,1,1
		s1-0.448,1-1c0-3.309,2.691-6,6-6s6,2.691,6,6c0,0.552,0.447,1,1,1s1-0.448,1-1c0-4.079-3.071-7.449-7.022-7.934
		c-0.231-6.139-5.284-11.066-11.478-11.066c-3.28,0-6.235,1.387-8.332,3.597C29.864,9.104,25.637,7.146,21.08,6.78l-1.075-0.086
		l-0.005,1.078c-0.038,8.232-6.766,14.929-14.996,14.929c-1.139,0-2.319-0.145-3.509-0.43l-1.05-0.252l-0.171,1.065
		c-0.182,1.131-0.271,2.151-0.271,3.117c0,3.428,0.921,6.784,2.649,9.759c-0.351,0.426-0.682,0.875-0.976,1.358
		c-1.596,2.625-2.073,5.715-1.345,8.699c0.729,2.984,2.575,5.506,5.2,7.101c0.162,0.099,0.342,0.146,0.519,0.146
		c0.338,0,0.667-0.171,0.855-0.481c0.287-0.472,0.137-1.087-0.335-1.374c-2.169-1.318-3.694-3.401-4.296-5.866
		s-0.207-5.017,1.11-7.186c2.197-3.616,6.451-5.314,10.496-4.26c0.448,1.432,1.297,2.756,2.54,3.779
		c0.187,0.153,0.411,0.228,0.635,0.228c0.289,0,0.575-0.124,0.772-0.364c0.352-0.426,0.29-1.057-0.136-1.408
		c-0.881-0.726-1.495-1.654-1.844-2.661l-0.149-0.677c-0.4-1.817,0.045-3.679,1.221-5.107c0.978-1.187,2.331-1.925,3.772-2.134
		c0.548-0.074,1.109-0.07,1.669,0.011c-0.284,1.194-0.296,2.446-0.006,3.676c0.108,0.46,0.52,0.771,0.973,0.771
		c0.076,0,0.153-0.008,0.23-0.026c0.537-0.127,0.87-0.665,0.744-1.203c-0.226-0.962-0.212-1.942,0.029-2.872l0.282-0.709
		c0.617-1.555,1.849-2.764,3.377-3.368c0.145-0.056,0.293-0.106,0.444-0.151c0.127-0.039,0.251-0.084,0.382-0.115
		c0.665-0.156,1.359-0.193,2.064-0.111c0.849,0.105,1.673,0.386,2.421,0.85c1.363,0.844,2.315,2.167,2.683,3.728
		c0.126,0.538,0.666,0.871,1.203,0.745c0.537-0.127,0.87-0.665,0.744-1.203C37.441,23.696,36.171,21.931,34.354,20.806z
		 M2.106,24.44c0.979,0.173,1.949,0.261,2.897,0.261c8.956,0,16.342-6.997,16.955-15.813c3.757,0.528,7.222,2.262,9.92,4.963
		c-1.109,1.667-1.783,3.64-1.891,5.761c-0.558,0.012-1.119,0.078-1.675,0.209c-2.081,0.49-3.846,1.76-4.971,3.577
		c-0.091,0.148-0.17,0.301-0.251,0.453c-0.083-0.017-0.167-0.02-0.251-0.033c-0.097-0.017-0.194-0.026-0.291-0.039
		c-0.265-0.034-0.528-0.059-0.792-0.066c-0.16-0.005-0.319-0.003-0.479,0.002c-0.19,0.006-0.379,0.018-0.568,0.037
		c-0.216,0.021-0.428,0.051-0.641,0.089c-0.117,0.022-0.233,0.048-0.349,0.076c-0.269,0.062-0.533,0.133-0.793,0.222
		c-0.038,0.013-0.074,0.029-0.112,0.042c-1.327,0.476-2.539,1.289-3.483,2.435c-1.267,1.539-1.855,3.414-1.812,5.267
		c-0.666-0.119-1.34-0.181-2.016-0.181c-2.761,0-5.354,0.961-7.427,2.73c-1.359-2.536-2.073-5.357-2.073-8.23
		C2.003,25.644,2.038,25.061,2.106,24.44z"/>
	<path d="M54.901,44.783c-0.458-3.979-3.843-7.082-7.943-7.082c-4.411,0-8,3.589-8,8c0,0.552,0.447,1,1,1s1-0.448,1-1
		c0-3.309,2.691-6,6-6c3.003,0,5.49,2.219,5.925,5.102c-2.797,0.509-4.925,2.957-4.925,5.898c0,0.552,0.447,1,1,1s1-0.448,1-1
		c0-2.206,1.794-4,4-4s4,1.794,4,4c0,0.552,0.447,1,1,1s1-0.448,1-1C59.958,47.714,57.762,45.237,54.901,44.783z"/>
</g>
<g>
</g>
<g>
</g>
<g>
</g>
<g>
</g>
<g>
</g>
<g>
</g>
<g>
</g>
<g>
</g>
<g>
</g>
<g>
</g>
<g>
</g>
<g>
</g>
<g>
</g>
<g>
</g>
<g>
</g>
</svg>
