<?xml version="1.0" encoding="iso-8859-1"?>
<!-- Generator: Adobe Illustrator 19.0.0, SVG Export Plug-In . SVG Version: 6.00 Build 0)  -->
<svg version="1.1" id="Capa_1" xmlns="http://www.w3.org/2000/svg" xmlns:xlink="http://www.w3.org/1999/xlink" x="0px" y="0px"
	 viewBox="0 0 60.173 60.173" style="enable-background:new 0 0 60.173 60.173;" xml:space="preserve">
	 <style>
	 path{
		 fill: #333333;
	 }
	 </style>
<g>
	<path d="M32.199,22.937c0.011-0.283,0.024-0.565,0.06-0.845c0.012-0.093,0.028-0.185,0.043-0.278
		c0.057-0.356,0.131-0.71,0.228-1.057c0.011-0.04,0.019-0.08,0.031-0.12c0.12-0.408,0.267-0.808,0.442-1.197
		c0.01-0.022,0.021-0.043,0.031-0.066c0.168-0.368,0.362-0.726,0.578-1.073c0.05-0.081,0.096-0.165,0.149-0.245l0.046-0.073
		c1.71-2.519,4.597-4.179,7.865-4.179c5.094,0,9.253,4.033,9.478,9.073c-3.929,0.504-6.978,3.863-6.978,7.927c0,0.552,0.447,1,1,1
		s1-0.448,1-1c0-3.309,2.691-6,6-6s6,2.691,6,6c0,0.552,0.447,1,1,1s1-0.448,1-1c0-4.079-3.071-7.449-7.022-7.934
		c-0.231-6.139-5.284-11.066-11.478-11.066c-3.551,0-6.73,1.619-8.841,4.157c-2.787-3.747-7.107-5.95-11.831-5.95
		c-8.157,0-14.793,6.636-14.793,14.793c0,3.861,1.483,7.442,4.102,10.169c-3.404,0.417-6.535,2.351-8.417,5.449
		C-1.4,45.841,0.329,52.929,5.747,56.222c0.162,0.099,0.342,0.146,0.519,0.146c0.338,0,0.667-0.171,0.855-0.48
		c0.287-0.472,0.137-1.087-0.335-1.374c-4.477-2.721-5.905-8.576-3.186-13.052c2.196-3.614,6.445-5.314,10.49-4.262
		c0.458,1.471,1.33,2.779,2.547,3.781c0.187,0.153,0.411,0.228,0.635,0.228c0.289,0,0.575-0.124,0.772-0.364
		c0.352-0.426,0.29-1.057-0.136-1.408c-0.989-0.814-1.671-1.899-1.986-3.116c-0.004-0.052-0.025-0.099-0.037-0.15
		c0-0.001,0-0.001,0-0.002l-0.016-0.072c-0.148-0.672-0.179-1.35-0.102-2.01c0.004-0.035,0.011-0.07,0.016-0.106
		c0.024-0.173,0.054-0.345,0.093-0.516c0.013-0.057,0.028-0.114,0.043-0.17c0.038-0.147,0.082-0.293,0.131-0.437
		c0.022-0.065,0.045-0.13,0.07-0.195c0.051-0.134,0.109-0.266,0.17-0.396c0.031-0.066,0.061-0.133,0.094-0.198
		c0.067-0.131,0.143-0.259,0.22-0.385c0.035-0.057,0.067-0.116,0.104-0.173c0.118-0.179,0.244-0.354,0.382-0.521
		c1.357-1.647,3.435-2.424,5.492-2.122c-0.28,1.173-0.307,2.424-0.012,3.675c0.108,0.46,0.52,0.771,0.973,0.771
		c0.076,0,0.153-0.008,0.23-0.026c0.537-0.127,0.87-0.665,0.744-1.203c-0.283-1.203-0.18-2.407,0.226-3.484l0.016-0.04
		c0.016-0.042,0.037-0.082,0.054-0.124c0.074-0.18,0.156-0.355,0.246-0.525c0.028-0.052,0.057-0.104,0.086-0.156
		c0.086-0.151,0.178-0.298,0.275-0.44c0.03-0.044,0.059-0.089,0.091-0.132c0.268-0.369,0.575-0.706,0.917-1.003
		c0.017-0.015,0.035-0.028,0.052-0.042c0.153-0.13,0.312-0.252,0.477-0.366c0.042-0.029,0.085-0.056,0.127-0.084
		c0.146-0.095,0.296-0.184,0.45-0.266c0.053-0.028,0.105-0.057,0.159-0.083c0.154-0.076,0.312-0.144,0.472-0.207
		c0.054-0.021,0.106-0.045,0.161-0.065c0.214-0.077,0.432-0.145,0.655-0.197c0.329-0.077,0.664-0.123,1.002-0.142
		c0.016-0.001,0.032-0.003,0.049-0.004c0.344-0.017,0.692-0.006,1.041,0.036c0.047,0.006,0.094,0.01,0.141,0.017l0.146,0.018
		c2.305,0.395,4.268,2.126,4.836,4.541c0.126,0.538,0.666,0.871,1.203,0.745c0.537-0.127,0.87-0.665,0.744-1.203
		C37.43,25.837,35.051,23.618,32.199,22.937z M21,12.012c4.314,0,8.246,2.121,10.631,5.704c-0.413,0.739-0.744,1.528-0.987,2.356
		c-0.026,0.089-0.045,0.179-0.069,0.268c-0.081,0.301-0.152,0.605-0.208,0.915c-0.026,0.143-0.045,0.286-0.066,0.43
		c-0.036,0.257-0.066,0.515-0.085,0.776c-0.006,0.085-0.023,0.169-0.028,0.255c-0.55,0.012-1.106,0.078-1.662,0.208
		c-0.278,0.065-0.548,0.146-0.812,0.238c-0.05,0.018-0.097,0.041-0.147,0.059c-0.215,0.08-0.427,0.165-0.631,0.262
		c-0.052,0.025-0.1,0.054-0.151,0.08c-0.198,0.099-0.393,0.203-0.58,0.317c-0.056,0.034-0.108,0.072-0.162,0.107
		c-0.176,0.113-0.349,0.231-0.515,0.357c-0.061,0.047-0.119,0.097-0.179,0.145c-0.151,0.122-0.299,0.247-0.44,0.379
		c-0.066,0.061-0.128,0.125-0.192,0.189c-0.127,0.127-0.25,0.257-0.368,0.391c-0.066,0.076-0.13,0.153-0.194,0.231
		c-0.107,0.132-0.209,0.266-0.307,0.405c-0.062,0.087-0.122,0.174-0.181,0.263c-0.092,0.141-0.178,0.286-0.261,0.433
		c-0.034,0.061-0.075,0.118-0.108,0.18c-0.062-0.012-0.123-0.014-0.185-0.025c-0.157-0.028-0.313-0.044-0.469-0.062
		c-0.225-0.027-0.449-0.048-0.674-0.056c-0.159-0.005-0.315-0.002-0.473,0.002c-0.221,0.006-0.44,0.019-0.659,0.044
		c-0.157,0.017-0.313,0.039-0.468,0.065c-0.216,0.037-0.429,0.084-0.64,0.139c-0.152,0.039-0.303,0.079-0.453,0.127
		c-0.211,0.068-0.416,0.149-0.62,0.234c-0.142,0.059-0.285,0.115-0.423,0.183c-0.207,0.101-0.405,0.218-0.603,0.336
		c-0.126,0.076-0.255,0.144-0.377,0.227c-0.211,0.143-0.41,0.306-0.608,0.47c-0.097,0.08-0.199,0.15-0.292,0.235
		c-0.284,0.259-0.555,0.538-0.805,0.842c-0.163,0.197-0.314,0.402-0.455,0.611c-0.05,0.073-0.092,0.15-0.14,0.225
		c-0.086,0.137-0.173,0.274-0.25,0.415c-0.053,0.097-0.1,0.198-0.149,0.297c-0.061,0.122-0.122,0.244-0.176,0.369
		c-0.049,0.113-0.091,0.227-0.135,0.342c-0.043,0.115-0.086,0.229-0.124,0.346c-0.04,0.124-0.076,0.249-0.11,0.375
		c-0.03,0.11-0.058,0.221-0.084,0.332c-0.03,0.133-0.056,0.266-0.08,0.4c-0.018,0.107-0.034,0.214-0.048,0.322
		c-0.018,0.14-0.035,0.28-0.045,0.421c-0.008,0.102-0.011,0.204-0.015,0.306c-0.006,0.149-0.011,0.299-0.008,0.449
		c0,0.023-0.002,0.045-0.001,0.068c-0.176-0.032-0.354-0.059-0.534-0.083C10.021,32.47,8.207,28.8,8.207,24.805
		C8.207,17.751,13.946,12.012,21,12.012z"/>
	<path d="M55.116,47.887c-0.458-3.979-3.843-7.082-7.943-7.082c-4.411,0-8,3.589-8,8c0,0.552,0.447,1,1,1s1-0.448,1-1
		c0-3.309,2.691-6,6-6c3.003,0,5.49,2.219,5.925,5.102c-2.797,0.509-4.925,2.957-4.925,5.898c0,0.552,0.447,1,1,1s1-0.448,1-1
		c0-2.206,1.794-4,4-4s4,1.794,4,4c0,0.552,0.447,1,1,1s1-0.448,1-1C60.173,50.818,57.977,48.341,55.116,47.887z"/>
	<path d="M1,25.805h4.138c0.553,0,1-0.448,1-1s-0.447-1-1-1H1c-0.553,0-1,0.448-1,1S0.447,25.805,1,25.805z"/>
	<path d="M21,9.943c0.553,0,1-0.448,1-1V4.805c0-0.552-0.447-1-1-1s-1,0.448-1,1v4.138C20,9.495,20.447,9.943,21,9.943z"/>
	<path d="M9.077,14.296c0.195,0.195,0.451,0.293,0.707,0.293s0.512-0.098,0.707-0.293c0.391-0.391,0.391-1.024,0-1.414L6.534,8.926
		c-0.391-0.391-1.023-0.391-1.414,0s-0.391,1.024,0,1.414L9.077,14.296z"/>
	<path d="M32.216,14.589c0.256,0,0.512-0.098,0.707-0.293l3.957-3.956c0.391-0.39,0.391-1.023,0-1.414s-1.023-0.391-1.414,0
		l-3.957,3.956c-0.391,0.39-0.391,1.023,0,1.414C31.704,14.491,31.96,14.589,32.216,14.589z"/>
	<path d="M13.881,10.594c0.162,0.381,0.532,0.61,0.921,0.61c0.131,0,0.263-0.026,0.391-0.08c0.508-0.216,0.746-0.803,0.53-1.311
		l-0.808-1.905c-0.217-0.51-0.804-0.744-1.312-0.531c-0.508,0.216-0.746,0.803-0.53,1.311L13.881,10.594z"/>
	<path d="M26.568,11.025c0.122,0.05,0.249,0.073,0.374,0.073c0.396,0,0.771-0.237,0.928-0.626l0.774-1.918
		c0.206-0.512-0.041-1.095-0.554-1.302c-0.508-0.207-1.095,0.041-1.302,0.553l-0.774,1.918
		C25.809,10.236,26.056,10.819,26.568,11.025z"/>
	<path d="M3.573,32.202c0.162,0.381,0.532,0.61,0.921,0.61c0.131,0,0.264-0.026,0.391-0.08l1.904-0.809
		c0.509-0.216,0.746-0.803,0.53-1.311c-0.217-0.509-0.808-0.745-1.312-0.53l-1.904,0.809C3.595,31.107,3.357,31.694,3.573,32.202z"
		/>
	<path d="M4,19.015l1.918,0.775c0.123,0.049,0.25,0.073,0.375,0.073c0.396,0,0.77-0.236,0.927-0.625
		c0.207-0.512-0.04-1.095-0.552-1.302L4.75,17.161c-0.513-0.205-1.095,0.041-1.302,0.552C3.241,18.225,3.488,18.808,4,19.015z"/>
</g>
<g>
</g>
<g>
</g>
<g>
</g>
<g>
</g>
<g>
</g>
<g>
</g>
<g>
</g>
<g>
</g>
<g>
</g>
<g>
</g>
<g>
</g>
<g>
</g>
<g>
</g>
<g>
</g>
<g>
</g>
</svg>
