<?xml version="1.0" encoding="iso-8859-1"?>
<!-- Generator: Adobe Illustrator 19.0.0, SVG Export Plug-In . SVG Version: 6.00 Build 0)  -->
<svg version="1.1" id="Capa_1" xmlns="http://www.w3.org/2000/svg" xmlns:xlink="http://www.w3.org/1999/xlink" x="0px" y="0px"
	 viewBox="0 0 52.661 52.661" style="enable-background:new 0 0 52.661 52.661;" xml:space="preserve">
	 <style>
	 path{
		 fill: #333333;
	 }
	 </style>
<g>
	<path d="M41.527,29.815c-0.277-0.479-0.89-0.643-1.366-0.366l-2.83,1.634v-3.268c0-0.552-0.447-1-1-1s-1,0.448-1,1v3.268
		l-2.83-1.634c-0.478-0.276-1.09-0.113-1.366,0.366c-0.276,0.479-0.112,1.09,0.366,1.366l2.83,1.634l-2.83,1.634
		c-0.479,0.276-0.643,0.888-0.366,1.366c0.186,0.321,0.521,0.5,0.867,0.5c0.17,0,0.342-0.043,0.499-0.134l2.83-1.634v3.268
		c0,0.552,0.447,1,1,1s1-0.448,1-1v-3.268l2.83,1.634c0.157,0.091,0.329,0.134,0.499,0.134c0.346,0,0.682-0.179,0.867-0.5
		c0.276-0.479,0.112-1.09-0.366-1.366l-2.83-1.634l2.83-1.634C41.639,30.905,41.803,30.293,41.527,29.815z"/>
	<path d="M20.527,29.815c-0.277-0.479-0.89-0.643-1.366-0.366l-2.83,1.634v-3.268c0-0.552-0.447-1-1-1s-1,0.448-1,1v3.268
		l-2.83-1.634c-0.478-0.276-1.09-0.113-1.366,0.366c-0.276,0.479-0.112,1.09,0.366,1.366l2.83,1.634l-2.83,1.634
		c-0.479,0.276-0.643,0.888-0.366,1.366c0.186,0.321,0.521,0.5,0.867,0.5c0.17,0,0.342-0.043,0.499-0.134l2.83-1.634v3.268
		c0,0.552,0.447,1,1,1s1-0.448,1-1v-3.268l2.83,1.634c0.157,0.091,0.329,0.134,0.499,0.134c0.346,0,0.682-0.179,0.867-0.5
		c0.276-0.479,0.112-1.09-0.366-1.366l-2.83-1.634l2.83-1.634C20.639,30.905,20.803,30.293,20.527,29.815z"/>
	<path d="M41.527,3.815c-0.277-0.479-0.89-0.643-1.366-0.366l-2.83,1.634V1.815c0-0.552-0.447-1-1-1s-1,0.448-1,1v3.268L32.5,3.449
		c-0.478-0.277-1.09-0.112-1.366,0.366s-0.112,1.09,0.366,1.366l2.83,1.634L31.5,8.449c-0.479,0.276-0.643,0.888-0.366,1.366
		c0.186,0.321,0.521,0.5,0.867,0.5c0.17,0,0.342-0.043,0.499-0.134l2.83-1.634v3.268c0,0.552,0.447,1,1,1s1-0.448,1-1V8.547
		l2.83,1.634c0.157,0.091,0.329,0.134,0.499,0.134c0.346,0,0.682-0.179,0.867-0.5c0.276-0.479,0.112-1.09-0.366-1.366l-2.83-1.634
		l2.83-1.634C41.639,4.905,41.803,4.293,41.527,3.815z"/>
	<path d="M20.527,3.815c-0.277-0.479-0.89-0.643-1.366-0.366l-2.83,1.634V1.815c0-0.552-0.447-1-1-1s-1,0.448-1,1v3.268L11.5,3.449
		c-0.478-0.277-1.09-0.112-1.366,0.366s-0.112,1.09,0.366,1.366l2.83,1.634L10.5,8.449c-0.479,0.276-0.643,0.888-0.366,1.366
		c0.186,0.321,0.521,0.5,0.867,0.5c0.17,0,0.342-0.043,0.499-0.134l2.83-1.634v3.268c0,0.552,0.447,1,1,1s1-0.448,1-1V8.547
		l2.83,1.634c0.157,0.091,0.329,0.134,0.499,0.134c0.346,0,0.682-0.179,0.867-0.5c0.276-0.479,0.112-1.09-0.366-1.366l-2.83-1.634
		l2.83-1.634C20.639,4.905,20.803,4.293,20.527,3.815z"/>
	<path d="M31.527,42.846c-0.277-0.479-0.89-0.643-1.366-0.366l-2.83,1.634v-3.268c0-0.552-0.447-1-1-1s-1,0.448-1,1v3.268
		L22.5,42.48c-0.478-0.276-1.09-0.112-1.366,0.366s-0.112,1.09,0.366,1.366l2.83,1.634L21.5,47.48
		c-0.479,0.276-0.643,0.888-0.366,1.366c0.186,0.321,0.521,0.5,0.867,0.5c0.17,0,0.342-0.043,0.499-0.134l2.83-1.634v3.268
		c0,0.552,0.447,1,1,1s1-0.448,1-1v-3.268l2.83,1.634c0.157,0.091,0.329,0.134,0.499,0.134c0.346,0,0.682-0.179,0.867-0.5
		c0.276-0.479,0.112-1.09-0.366-1.366l-2.83-1.634l2.83-1.634C31.639,43.936,31.803,43.325,31.527,42.846z"/>
	<path d="M10.527,42.846c-0.277-0.479-0.89-0.643-1.366-0.366l-2.83,1.634v-3.268c0-0.552-0.447-1-1-1s-1,0.448-1,1v3.268L1.5,42.48
		c-0.478-0.276-1.09-0.112-1.366,0.366s-0.112,1.09,0.366,1.366l2.83,1.634L0.5,47.48c-0.479,0.276-0.643,0.888-0.366,1.366
		c0.186,0.321,0.521,0.5,0.867,0.5c0.17,0,0.342-0.043,0.499-0.134l2.83-1.634v3.268c0,0.552,0.447,1,1,1s1-0.448,1-1v-3.268
		l2.83,1.634c0.157,0.091,0.329,0.134,0.499,0.134c0.346,0,0.682-0.179,0.867-0.5c0.276-0.479,0.112-1.09-0.366-1.366l-2.83-1.634
		l2.83-1.634C10.639,43.936,10.803,43.325,10.527,42.846z"/>
	<path d="M52.527,42.846c-0.277-0.479-0.89-0.643-1.366-0.366l-2.83,1.634v-3.268c0-0.552-0.447-1-1-1s-1,0.448-1,1v3.268
		L43.5,42.48c-0.478-0.276-1.09-0.112-1.366,0.366s-0.112,1.09,0.366,1.366l2.83,1.634L42.5,47.48
		c-0.479,0.276-0.643,0.888-0.366,1.366c0.186,0.321,0.521,0.5,0.867,0.5c0.17,0,0.342-0.043,0.499-0.134l2.83-1.634v3.268
		c0,0.552,0.447,1,1,1s1-0.448,1-1v-3.268l2.83,1.634c0.157,0.091,0.329,0.134,0.499,0.134c0.346,0,0.682-0.179,0.867-0.5
		c0.276-0.479,0.112-1.09-0.366-1.366l-2.83-1.634l2.83-1.634C52.639,43.936,52.803,43.325,52.527,42.846z"/>
	<path d="M21.134,22.846c0.186,0.321,0.521,0.5,0.867,0.5c0.17,0,0.342-0.043,0.499-0.134l2.83-1.634v3.268c0,0.552,0.447,1,1,1
		s1-0.448,1-1v-3.268l2.83,1.634c0.157,0.091,0.329,0.134,0.499,0.134c0.346,0,0.682-0.179,0.867-0.5
		c0.276-0.479,0.112-1.09-0.366-1.366l-2.83-1.634l2.83-1.634c0.479-0.276,0.643-0.888,0.366-1.366
		c-0.277-0.479-0.89-0.643-1.366-0.366l-2.83,1.634v-3.268c0-0.552-0.447-1-1-1s-1,0.448-1,1v3.268L22.5,16.48
		c-0.478-0.277-1.09-0.113-1.366,0.366c-0.276,0.479-0.112,1.09,0.366,1.366l2.83,1.634L21.5,21.48
		C21.022,21.756,20.858,22.368,21.134,22.846z"/>
	<path d="M0.134,22.846c0.186,0.321,0.521,0.5,0.867,0.5c0.17,0,0.342-0.043,0.499-0.134l2.83-1.634v3.268c0,0.552,0.447,1,1,1
		s1-0.448,1-1v-3.268l2.83,1.634c0.157,0.091,0.329,0.134,0.499,0.134c0.346,0,0.682-0.179,0.867-0.5
		c0.276-0.479,0.112-1.09-0.366-1.366l-2.83-1.634l2.83-1.634c0.479-0.276,0.643-0.888,0.366-1.366
		c-0.277-0.479-0.89-0.643-1.366-0.366l-2.83,1.634v-3.268c0-0.552-0.447-1-1-1s-1,0.448-1,1v3.268L1.5,16.48
		c-0.478-0.277-1.09-0.113-1.366,0.366c-0.276,0.479-0.112,1.09,0.366,1.366l2.83,1.634L0.5,21.48
		C0.022,21.756-0.142,22.368,0.134,22.846z"/>
	<path d="M52.161,21.48l-2.83-1.634l2.83-1.634c0.479-0.276,0.643-0.888,0.366-1.366c-0.277-0.479-0.89-0.643-1.366-0.366
		l-2.83,1.634v-3.268c0-0.552-0.447-1-1-1s-1,0.448-1,1v3.268L43.5,16.48c-0.478-0.277-1.09-0.113-1.366,0.366
		c-0.276,0.479-0.112,1.09,0.366,1.366l2.83,1.634L42.5,21.48c-0.479,0.276-0.643,0.888-0.366,1.366
		c0.186,0.321,0.521,0.5,0.867,0.5c0.17,0,0.342-0.043,0.499-0.134l2.83-1.634v3.268c0,0.552,0.447,1,1,1s1-0.448,1-1v-3.268
		l2.83,1.634c0.157,0.091,0.329,0.134,0.499,0.134c0.346,0,0.682-0.179,0.867-0.5C52.803,22.368,52.639,21.756,52.161,21.48z"/>
</g>
<g>
</g>
<g>
</g>
<g>
</g>
<g>
</g>
<g>
</g>
<g>
</g>
<g>
</g>
<g>
</g>
<g>
</g>
<g>
</g>
<g>
</g>
<g>
</g>
<g>
</g>
<g>
</g>
<g>
</g>
</svg>
