<?xml version="1.0" encoding="iso-8859-1"?>
<!-- Generator: Adobe Illustrator 19.0.0, SVG Export Plug-In . SVG Version: 6.00 Build 0)  -->
<svg version="1.1" id="Capa_1" xmlns="http://www.w3.org/2000/svg" xmlns:xlink="http://www.w3.org/1999/xlink" x="0px" y="0px"
	 viewBox="0 0 58 58" style="enable-background:new 0 0 58 58;" xml:space="preserve">
	 <style>
	 path{
		 fill: #333333;
	 }
	 </style>
<g>
	<path d="M10.111,36.662c-0.491-0.363-0.965-0.77-1.409-1.207c-0.394-0.388-1.026-0.384-1.414,0.01s-0.384,1.026,0.01,1.414
		c0.512,0.504,1.058,0.973,1.624,1.391c0.179,0.133,0.388,0.196,0.594,0.196c0.307,0,0.609-0.141,0.805-0.405
		C10.649,37.616,10.556,36.99,10.111,36.662z"/>
	<path d="M36.759,41.299c0.073,0,0.147-0.008,0.222-0.024c0.68-0.153,1.344-0.323,1.991-0.508c0.531-0.151,0.839-0.705,0.688-1.236
		c-0.152-0.531-0.703-0.833-1.236-0.688c-0.612,0.175-1.241,0.335-1.884,0.48c-0.538,0.122-0.876,0.657-0.755,1.196
		C35.89,40.984,36.302,41.299,36.759,41.299z"/>
	<path d="M24.801,42.123c0.654,0.017,1.325,0.027,2.016,0.034c0.003,0,0.007,0,0.01,0c0.548,0,0.994-0.441,1-0.99
		c0.006-0.552-0.438-1.004-0.99-1.01c-0.679-0.007-1.34-0.018-1.984-0.034c-0.009,0-0.018,0-0.025,0c-0.541,0-0.985,0.431-1,0.975
		C23.812,41.649,24.248,42.108,24.801,42.123z"/>
	<path d="M12.656,40.302c0.629,0.243,1.302,0.462,1.998,0.65c0.088,0.024,0.176,0.035,0.263,0.035c0.44,0,0.844-0.293,0.964-0.738
		c0.145-0.533-0.17-1.082-0.703-1.227c-0.63-0.171-1.236-0.368-1.801-0.586c-0.517-0.199-1.096,0.057-1.293,0.572
		C11.885,39.525,12.142,40.104,12.656,40.302z"/>
	<path d="M42.478,39.5c0.126,0,0.255-0.023,0.379-0.074c0.65-0.267,1.278-0.545,1.882-0.833c0.498-0.238,0.709-0.836,0.471-1.334
		c-0.238-0.499-0.834-0.709-1.334-0.471c-0.568,0.272-1.161,0.535-1.776,0.786c-0.511,0.209-0.756,0.793-0.547,1.305
		C41.71,39.266,42.084,39.5,42.478,39.5z"/>
	<path d="M18.72,41.722c0.655,0.081,1.333,0.148,2.034,0.203c0.026,0.002,0.053,0.003,0.079,0.003c0.517,0,0.955-0.397,0.996-0.922
		c0.043-0.551-0.368-1.032-0.919-1.075c-0.67-0.053-1.318-0.116-1.946-0.193c-0.539-0.07-1.046,0.321-1.114,0.87
		C17.781,41.156,18.171,41.655,18.72,41.722z"/>
	<path d="M30.822,42.119c0.018,0,0.035,0,0.053-0.001c0.693-0.036,1.377-0.093,2.048-0.165c0.549-0.06,0.946-0.552,0.887-1.102
		c-0.059-0.548-0.531-0.945-1.102-0.887c-0.634,0.068-1.28,0.121-1.937,0.155c-0.552,0.029-0.976,0.5-0.947,1.051
		C29.853,41.705,30.294,42.119,30.822,42.119z"/>
	<path d="M47.81,36.759c0.184,0,0.369-0.051,0.535-0.156c0.599-0.381,1.174-0.774,1.709-1.171c0.443-0.329,0.536-0.956,0.208-1.399
		c-0.329-0.444-0.957-0.537-1.399-0.208c-0.497,0.369-1.032,0.735-1.59,1.091c-0.467,0.296-0.604,0.914-0.308,1.38
		C47.155,36.595,47.479,36.759,47.81,36.759z"/>
	<path d="M53.531,30.32c-0.467-0.296-1.084-0.152-1.378,0.315c-0.129,0.204-0.296,0.429-0.497,0.668
		c-0.356,0.423-0.302,1.054,0.12,1.409c0.188,0.158,0.417,0.235,0.644,0.235c0.285,0,0.568-0.121,0.766-0.355
		c0.262-0.311,0.484-0.611,0.661-0.895C54.141,31.23,53.999,30.613,53.531,30.32z"/>
	<path d="M55,19.833c0-1.142-0.476-2.185-1.332-3.125C56.526,15.022,58,13.072,58,11.167C58,6.158,47.836,0.833,29,0.833
		S0,6.158,0,11.167c0,1.905,1.474,3.855,4.332,5.542C3.476,17.649,3,18.691,3,19.833c0,6.062,13.396,9.333,26,9.333
		S55,25.895,55,19.833z M2,11.167c0-3.941,11.089-8.333,27-8.333s27,4.392,27,8.333c0,1.405-1.416,2.867-3.952,4.168
		C47.408,12.171,38.004,10.5,29,10.5s-18.408,1.67-23.048,4.834C3.416,14.034,2,12.572,2,11.167z M49.803,16.329
		C45.012,18.175,37.736,19.5,29,19.5s-16.012-1.325-20.803-3.172C12.194,14.185,19.661,12.5,29,12.5S45.806,14.185,49.803,16.329z
		 M5,19.833c0-0.713,0.423-1.443,1.208-2.153C11.082,19.924,18.755,21.5,29,21.5s17.918-1.577,22.792-3.82
		C52.577,18.391,53,19.12,53,19.833c0,3.469-9.856,7.333-24,7.333S5,23.302,5,19.833z"/>
	<path d="M13.817,34.002c0.413,0,0.8-0.258,0.944-0.671c0.182-0.521-0.094-1.092-0.615-1.273c-0.638-0.223-1.232-0.46-1.767-0.707
		c-0.506-0.234-1.097-0.013-1.327,0.489c-0.231,0.502-0.012,1.096,0.489,1.327c0.593,0.273,1.247,0.535,1.946,0.779
		C13.597,33.985,13.708,34.002,13.817,34.002z"/>
	<path d="M8,27.167c-0.553,0-1,0.447-1,1c0,0.849,0.314,1.671,0.935,2.442c0.197,0.246,0.487,0.374,0.78,0.374
		c0.22,0,0.44-0.072,0.625-0.221c0.431-0.346,0.5-0.975,0.153-1.405C9.166,28.949,9,28.548,9,28.167C9,27.614,8.553,27.167,8,27.167
		z"/>
	<path d="M19.64,35.434c0.48,0,0.904-0.347,0.985-0.836c0.091-0.545-0.277-1.061-0.822-1.15c-0.661-0.109-1.302-0.23-1.92-0.363
		c-0.544-0.12-1.072,0.229-1.188,0.768c-0.116,0.54,0.228,1.072,0.768,1.188c0.647,0.139,1.319,0.266,2.012,0.381
		C19.53,35.43,19.586,35.434,19.64,35.434z"/>
	<path d="M38.516,33.997c-0.115-0.54-0.65-0.891-1.187-0.769c-0.637,0.136-1.279,0.259-1.925,0.369
		c-0.544,0.093-0.91,0.608-0.817,1.153c0.083,0.487,0.506,0.832,0.984,0.832c0.056,0,0.112-0.005,0.169-0.015
		c0.673-0.114,1.343-0.243,2.007-0.385C38.287,35.069,38.631,34.538,38.516,33.997z"/>
	<path d="M25.604,36.075c0.527,0,0.969-0.413,0.998-0.946c0.029-0.552-0.395-1.022-0.945-1.053
		c-0.664-0.035-1.319-0.082-1.961-0.139c-0.556-0.054-1.035,0.358-1.084,0.908c-0.049,0.55,0.358,1.035,0.908,1.084
		c0.665,0.059,1.342,0.107,2.029,0.145C25.567,36.075,25.585,36.075,25.604,36.075z"/>
	<path d="M32.598,34.996c-0.04-0.55-0.506-0.971-1.07-0.924c-0.65,0.047-1.299,0.077-1.942,0.089
		c-0.553,0.01-0.992,0.466-0.982,1.018c0.01,0.546,0.456,0.982,1,0.982c0.006,0,0.012,0,0.018,0
		c0.681-0.012,1.366-0.044,2.054-0.095C32.225,36.026,32.638,35.546,32.598,34.996z"/>
	<path d="M44.262,32.256c-0.182-0.521-0.754-0.798-1.273-0.615c-0.606,0.211-1.229,0.414-1.864,0.606
		c-0.528,0.16-0.827,0.718-0.667,1.247c0.131,0.432,0.527,0.71,0.957,0.71c0.096,0,0.193-0.014,0.29-0.043
		c0.661-0.2,1.311-0.411,1.942-0.632C44.168,33.348,44.443,32.778,44.262,32.256z"/>
	<path d="M47.45,32.004c0.649-0.299,1.267-0.605,1.847-0.916c0.487-0.261,0.671-0.867,0.41-1.354
		c-0.262-0.487-0.869-0.67-1.354-0.41c-0.547,0.293-1.129,0.582-1.739,0.863c-0.502,0.23-0.722,0.825-0.49,1.326
		c0.169,0.366,0.53,0.582,0.909,0.582C47.173,32.096,47.315,32.067,47.45,32.004z"/>
	<path d="M52.681,25.991c-0.259,0.392-0.652,0.813-1.169,1.254c-0.421,0.358-0.471,0.989-0.112,1.409
		c0.197,0.232,0.479,0.352,0.761,0.352c0.229,0,0.46-0.078,0.648-0.239c0.659-0.562,1.178-1.124,1.54-1.67
		c0.305-0.461,0.179-1.081-0.281-1.387C53.605,25.404,52.984,25.531,52.681,25.991z"/>
	<path d="M33.624,46.43c-0.077-0.546-0.573-0.932-1.13-0.851c-0.646,0.091-1.291,0.158-1.918,0.2
		c-0.551,0.037-0.968,0.515-0.931,1.065c0.036,0.528,0.476,0.933,0.997,0.933c0.022,0,0.045-0.001,0.068-0.002
		c0.675-0.046,1.368-0.118,2.063-0.216C33.32,47.483,33.701,46.978,33.624,46.43z"/>
	<path d="M39.412,44.858c-0.174-0.523-0.737-0.809-1.265-0.632c-0.606,0.202-1.229,0.392-1.861,0.564
		c-0.532,0.146-0.847,0.695-0.701,1.229c0.122,0.444,0.524,0.736,0.964,0.736c0.088,0,0.177-0.012,0.265-0.035
		c0.668-0.183,1.325-0.384,1.967-0.598C39.304,45.949,39.587,45.382,39.412,44.858z"/>
	<path d="M26.679,45.793c-0.672-0.023-1.327-0.057-1.965-0.1c-0.543-0.021-1.027,0.381-1.064,0.932
		c-0.036,0.552,0.381,1.027,0.932,1.064c0.659,0.043,1.336,0.078,2.029,0.102c0.012,0.001,0.023,0.001,0.035,0.001
		c0.536,0,0.979-0.426,0.998-0.966C27.663,46.275,27.23,45.812,26.679,45.793z"/>
	<path d="M44.859,42.343c-0.259-0.487-0.866-0.671-1.353-0.413c-0.551,0.293-1.133,0.582-1.742,0.863
		c-0.502,0.23-0.722,0.824-0.49,1.326c0.168,0.366,0.53,0.582,0.909,0.582c0.14,0,0.282-0.029,0.417-0.092
		c0.646-0.297,1.264-0.604,1.846-0.914C44.935,43.436,45.119,42.831,44.859,42.343z"/>
	<path d="M15.148,44.044c-0.674-0.235-1.234-0.486-1.619-0.727c-0.47-0.292-1.087-0.148-1.378,0.319
		c-0.292,0.469-0.149,1.086,0.319,1.378c0.517,0.321,1.195,0.631,2.02,0.918c0.108,0.038,0.22,0.056,0.329,0.056
		c0.413,0,0.801-0.258,0.944-0.671C15.945,44.796,15.67,44.226,15.148,44.044z"/>
	<path d="M48.095,38.69c-0.31,0.354-0.772,0.769-1.338,1.199c-0.439,0.335-0.524,0.962-0.19,1.401
		c0.197,0.259,0.495,0.395,0.797,0.395c0.211,0,0.424-0.066,0.604-0.204c0.681-0.518,1.229-1.014,1.633-1.475
		c0.363-0.415,0.321-1.047-0.095-1.411C49.092,38.232,48.459,38.272,48.095,38.69z"/>
	<path d="M20.807,45.3c-0.678-0.095-1.322-0.199-1.932-0.312c-0.545-0.105-1.065,0.259-1.165,0.802
		c-0.101,0.543,0.259,1.064,0.802,1.165c0.637,0.118,1.311,0.227,2.02,0.325c0.047,0.007,0.093,0.01,0.139,0.01
		c0.491,0,0.92-0.361,0.989-0.862C21.735,45.881,21.354,45.376,20.807,45.3z"/>
	<path d="M12.57,54.999c-0.652,0.034-1.313,0.063-1.984,0.089c-0.553,0.021-0.983,0.484-0.962,1.036
		c0.02,0.54,0.464,0.963,0.998,0.963c0.013,0,0.025,0,0.038-0.001c0.681-0.025,1.352-0.055,2.014-0.089
		c0.552-0.029,0.976-0.499,0.947-1.051C13.592,55.393,13.108,54.967,12.57,54.999z"/>
	<path d="M35.786,50.737c-0.592,0.223-1.208,0.439-1.848,0.651c-0.524,0.173-0.809,0.739-0.635,1.264
		c0.139,0.42,0.529,0.686,0.949,0.686c0.104,0,0.21-0.017,0.314-0.051c0.665-0.22,1.307-0.446,1.924-0.679
		c0.517-0.194,0.778-0.771,0.583-1.288C36.88,50.803,36.303,50.542,35.786,50.737z"/>
	<path d="M41.041,48.256c-0.523,0.314-1.091,0.626-1.688,0.928c-0.493,0.249-0.691,0.85-0.442,1.343
		c0.176,0.349,0.528,0.55,0.894,0.55c0.151,0,0.305-0.034,0.449-0.107c0.641-0.323,1.252-0.659,1.816-0.998
		c0.474-0.284,0.627-0.899,0.343-1.372S41.516,47.972,41.041,48.256z"/>
	<path d="M46.531,44.32c-0.468-0.295-1.085-0.151-1.378,0.315c-0.283,0.45-0.659,0.909-1.118,1.365
		c-0.393,0.39-0.395,1.022-0.006,1.414c0.195,0.197,0.453,0.296,0.71,0.296c0.255,0,0.51-0.097,0.704-0.29
		c0.568-0.563,1.04-1.144,1.403-1.723C47.141,45.23,46.999,44.613,46.531,44.32z"/>
	<path d="M30.164,52.488c-0.621,0.16-1.261,0.313-1.917,0.462c-0.538,0.122-0.876,0.657-0.755,1.196
		c0.105,0.464,0.518,0.779,0.975,0.779c0.073,0,0.147-0.008,0.222-0.024c0.676-0.152,1.333-0.312,1.974-0.476
		c0.535-0.138,0.857-0.683,0.72-1.218S30.699,52.352,30.164,52.488z"/>
	<path d="M18.496,54.531c-0.646,0.069-1.304,0.134-1.971,0.192c-0.551,0.049-0.957,0.534-0.908,1.084
		c0.046,0.521,0.482,0.912,0.995,0.912c0.029,0,0.06-0.001,0.089-0.004c0.681-0.061,1.35-0.125,2.01-0.196
		c0.549-0.059,0.946-0.552,0.887-1.102C19.539,54.87,19.072,54.472,18.496,54.531z"/>
	<path d="M24.375,53.715c-0.639,0.11-1.289,0.214-1.953,0.313c-0.546,0.082-0.923,0.592-0.841,1.138
		c0.074,0.496,0.501,0.852,0.988,0.852c0.049,0,0.099-0.004,0.149-0.011c0.678-0.102,1.344-0.209,1.996-0.321
		c0.544-0.094,0.909-0.611,0.815-1.155S24.919,53.623,24.375,53.715z"/>
	<path d="M6.625,55.166c-0.002,0-0.003,0-0.005,0L6,55.167c-0.553,0-1,0.447-1,1s0.447,1,1,1l0.63-0.001
		c0.552-0.003,0.998-0.452,0.995-1.005C7.622,55.61,7.175,55.166,6.625,55.166z"/>
	<circle cx="51" cy="55.167" r="1"/>
	<circle cx="52" cy="46.167" r="1"/>
	<circle cx="57" cy="48.167" r="1"/>
	<circle cx="55" cy="39.167" r="1"/>
</g>
<g>
</g>
<g>
</g>
<g>
</g>
<g>
</g>
<g>
</g>
<g>
</g>
<g>
</g>
<g>
</g>
<g>
</g>
<g>
</g>
<g>
</g>
<g>
</g>
<g>
</g>
<g>
</g>
<g>
</g>
</svg>
